<svg xmlns="http://www.w3.org/2000/svg" viewBox="0 0 1920 1080" preserveAspectRatio="xMidYMax slice" role="img" aria-label="Entrepot logistique et camionnette">
  <defs>
    <linearGradient id="sky" x1="0" y1="0" x2="0" y2="1">
      <stop offset="0%" stop-color="#07070e"/>
      <stop offset="50%" stop-color="#0e0e16"/>
      <stop offset="100%" stop-color="#14141e"/>
    </linearGradient>
    <linearGradient id="vanCargo" x1="0" y1="0" x2="0" y2="1">
      <stop offset="0%" stop-color="#2c2c3a"/>
      <stop offset="100%" stop-color="#181822"/>
    </linearGradient>
  </defs>
  <rect width="1920" height="1080" fill="url(#sky)"/>
  <rect x="0" y="702" width="1920" height="378" fill="#0a0a10"/>
  <line x1="0" y1="702" x2="1920" y2="702" stroke="#282830" stroke-width="2"/>
  <g opacity="0.3" stroke="#32323e" stroke-width="2">
    <line x1="240" y1="702" x2="200" y2="1080"/>
    <line x1="480" y1="702" x2="440" y2="1080"/>
    <line x1="720" y1="702" x2="680" y2="1080"/>
  </g>
  <g transform="translate(0, 100)">
    <path d="M 32 292 L 1008 292 L 988 238 L 52 238 Z" fill="#1c1c26" stroke="#333340" stroke-width="2"/>
    <rect x="48" y="292" width="944" height="308" fill="#16161f" stroke="#2a2a34" stroke-width="2"/>
    <rect x="48" y="318" width="944" height="12" fill="#22222c" opacity="0.95"/>
    <g fill="#08080e" stroke="#2e2e3c" stroke-width="2">
      <rect x="88" y="358" width="112" height="242" rx="2"/>
      <rect x="228" y="358" width="112" height="242" rx="2"/>
      <rect x="368" y="358" width="112" height="242" rx="2"/>
      <rect x="508" y="358" width="112" height="242" rx="2"/>
    </g>
    <g stroke="#3d3d4c" stroke-width="2" opacity="0.65">
      <line x1="88" y1="430" x2="200" y2="430"/>
      <line x1="88" y1="480" x2="200" y2="480"/>
      <line x1="228" y1="430" x2="340" y2="430"/>
      <line x1="368" y1="455" x2="480" y2="455"/>
    </g>
    <rect x="708" y="268" width="220" height="20" rx="3" fill="#20202c" stroke="#383848"/>
    <g fill="#1a2234" stroke="#333" stroke-width="1">
      <rect x="732" y="332" width="40" height="26" rx="2"/>
      <rect x="788" y="332" width="40" height="26" rx="2"/>
      <rect x="844" y="332" width="40" height="26" rx="2"/>
    </g>
  </g>
  <rect x="760" y="518" width="320" height="184" fill="#13131a" stroke="#26262e" stroke-width="2"/>
  <rect x="778" y="536" width="72" height="40" fill="#1a2230" opacity="0.55" stroke="#333"/>
  <g transform="translate(1008, 536)">
    <ellipse cx="200" cy="252" rx="182" ry="11" fill="#000" opacity="0.38"/>
    <rect x="96" y="54" width="228" height="160" rx="5" fill="url(#vanCargo)" stroke="#383848" stroke-width="2"/>
    <rect x="96" y="106" width="228" height="28" fill="#b82416"/>
    <rect x="96" y="106" width="228" height="9" fill="#e8311a"/>
    <line x1="210" y1="58" x2="210" y2="212" stroke="#25252e" stroke-width="2.5"/>
    <rect x="4" y="128" width="94" height="86" rx="5" fill="#1e1e28" stroke="#383848" stroke-width="2"/>
    <path d="M 98 128 L 98 88 Q 98 72 118 64 L 150 54 L 324 54 L 324 128 Z" fill="#252530" stroke="#383848" stroke-width="2"/>
    <path d="M 108 72 L 280 72 L 272 118 L 102 112 Z" fill="#1a2438" stroke="#3a4a68" stroke-width="1"/>
    <g fill="#101014" stroke="#2c2c34" stroke-width="2.5">
      <circle cx="52" cy="222" r="30"/>
      <circle cx="238" cy="222" r="30"/>
    </g>
    <circle cx="52" cy="222" r="11" fill="#383848"/>
    <circle cx="238" cy="222" r="11" fill="#383848"/>
    <circle cx="312" cy="98" r="4" fill="#f0ecd8" opacity="0.35"/>
  </g>
</svg>
